<svg width="110" height="116" viewBox="0 0 110 116" fill="none" xmlns="http://www.w3.org/2000/svg">
<g clip-path="url(#clip0)">
<path d="M106.576 0H3.42376C1.64899 0 0.210144 1.51733 0.210144 3.38891V112.611C0.210144 114.483 1.64899 116 3.42376 116H106.576C108.351 116 109.79 114.483 109.79 112.611V3.38891C109.79 1.51733 108.351 0 106.576 0V0ZM83.3949 6.77781H90.0901V109.222H83.3949V6.77781ZM6.63738 6.77781H76.9676V109.222H6.63738V6.77781ZM103.363 109.222H96.5173V6.77781H103.363V109.222Z" fill="white"/>
<path d="M18.285 41.4687H34.0052C35.78 41.4687 37.2188 39.9514 37.2188 38.0798V21.5022C37.2188 19.6306 35.78 18.1133 34.0052 18.1133H18.285C16.5103 18.1133 15.0714 19.6306 15.0714 21.5022V38.0798C15.0714 39.9514 16.5103 41.4687 18.285 41.4687V41.4687ZM21.4986 24.8911H30.7916V34.6909H21.4986V24.8911Z" fill="white"/>
<path d="M18.041 73.0329H33.7612C35.5359 73.0329 36.9748 71.5156 36.9748 69.644V53.0666C36.9748 51.1951 35.5359 49.6777 33.7612 49.6777H18.041C16.2662 49.6777 14.8274 51.1951 14.8274 53.0666V69.644C14.8274 71.5156 16.2662 73.0329 18.041 73.0329ZM21.2546 56.4555H30.5476V66.2551H21.2546V56.4555Z" fill="white"/>
<path d="M46.1163 24.8911H66.8484C68.6232 24.8911 70.062 23.3738 70.062 21.5022C70.062 19.6306 68.6232 18.1133 66.8484 18.1133H46.1163C44.3415 18.1133 42.9026 19.6306 42.9026 21.5022C42.9026 23.3738 44.3415 24.8911 46.1163 24.8911V24.8911Z" fill="white"/>
<path d="M66.8484 34.2695H46.1163C44.3415 34.2695 42.9026 35.7869 42.9026 37.6584C42.9026 39.53 44.3415 41.0473 46.1163 41.0473H66.8484C68.6232 41.0473 70.062 39.53 70.062 37.6584C70.062 35.7869 68.6232 34.2695 66.8484 34.2695Z" fill="white"/>
<path d="M66.8484 50.4277H46.1163C44.3415 50.4277 42.9026 51.9451 42.9026 53.8166C42.9026 55.6882 44.3415 57.2055 46.1163 57.2055H66.8484C68.6232 57.2055 70.062 55.6882 70.062 53.8166C70.062 51.9451 68.6232 50.4277 66.8484 50.4277Z" fill="white"/>
<path d="M66.8484 66.2559H46.1163C44.3415 66.2559 42.9026 67.7732 42.9026 69.6448C42.9026 71.5163 44.3415 73.0337 46.1163 73.0337H66.8484C68.6232 73.0337 70.062 71.5163 70.062 69.6448C70.062 67.7732 68.6232 66.2559 66.8484 66.2559Z" fill="white"/>
<path d="M34.797 82.6887L23.48 92.5504L20.3135 89.2115C19.0587 87.8882 17.0238 87.8882 15.7688 89.2115C14.5138 90.5347 14.5138 92.6806 15.7688 94.004L21.0018 99.5225C21.6264 100.181 22.449 100.515 23.2749 100.515C23.9986 100.515 24.7247 100.259 25.3212 99.7388L38.8912 87.9137C40.2596 86.7215 40.4519 84.5854 39.3216 83.1426C38.1908 81.6998 36.165 81.4963 34.797 82.6887V82.6887Z" fill="white"/>
</g>
<defs>
<clipPath id="clip0">
<rect width="110" height="116" fill="white"/>
</clipPath>
</defs>
</svg>
