<svg width="101" height="90" viewBox="0 0 101 90" fill="none" xmlns="http://www.w3.org/2000/svg">
<g clip-path="url(#clip0)">
<path d="M86.2098 27.2079C76.6716 18.692 63.9894 14.002 50.5005 14.002C37.0116 14.002 24.3294 18.692 14.7912 27.2079C5.25302 35.7245 0 47.0468 0 59.09C0 62.4034 0.404553 65.7092 1.20287 68.9159C1.66367 70.7652 2.26241 72.6062 2.98213 74.3881C3.42059 75.4745 4.56798 76.1508 5.79088 76.1508C6.12762 76.1508 6.46899 76.0992 6.80419 75.9918C8.35536 75.4917 9.15907 73.9643 8.59963 72.5794C7.96545 71.0094 7.43837 69.3878 7.03305 67.7587C6.54374 65.7917 6.22549 63.7821 6.07522 61.756H15.2559C16.9049 61.756 18.2419 60.5623 18.2419 59.09C18.2419 57.6177 16.9049 56.4241 15.2559 56.4241H6.07445C6.46976 51.1231 8.03326 46.1035 10.5376 41.5683L18.4846 45.6653C18.9546 45.9075 19.4678 46.023 19.9749 46.023C21.0067 46.023 22.0107 45.5449 22.5632 44.6897C23.3878 43.4142 22.8985 41.7836 21.4706 41.0475L13.5306 36.9546C16.7624 32.6657 20.9042 28.9678 25.7072 26.0824L30.2921 33.1714C30.8446 34.0273 31.8487 34.5054 32.8805 34.5054C33.3868 34.5054 33.9007 34.3898 34.3708 34.1477C35.7994 33.4115 36.2888 31.781 35.4635 30.5054L30.8755 23.4102C35.9551 21.1742 41.5765 19.7783 47.5137 19.4261V27.6228C47.5137 29.0951 48.8507 30.2887 50.4997 30.2887C52.1488 30.2887 53.4865 29.0951 53.4865 27.6228V19.4261C59.423 19.779 65.0451 21.1742 70.1248 23.4102L65.536 30.5061C64.7115 31.781 65.2008 33.4115 66.6294 34.1477C67.0995 34.3898 67.6127 34.5054 68.1197 34.5054C69.1515 34.5054 70.1548 34.0273 70.7081 33.1721L75.2923 26.0824C80.096 28.9678 84.2379 32.6657 87.4697 36.9546L79.5297 41.0475C78.101 41.7836 77.6117 43.4142 78.4362 44.6897C78.9895 45.5449 79.9935 46.023 81.0253 46.023C81.5316 46.023 82.0456 45.9081 82.5156 45.6653L90.4626 41.569C92.967 46.1035 94.5305 51.1231 94.9258 56.4241H85.7444C84.0946 56.4241 82.7576 57.6177 82.7576 59.09C82.7576 60.5623 84.0946 61.756 85.7444 61.756H94.925C94.7824 63.6741 94.4904 65.5784 94.0442 67.4429C93.6751 68.9826 93.1981 70.5182 92.6256 72.0063C92.0901 73.3995 92.9207 74.9158 94.4804 75.394C96.04 75.8714 97.7391 75.1305 98.2747 73.738C98.9243 72.0483 99.466 70.3056 99.8844 68.5581C100.625 65.4649 101 62.2795 101 59.09C101.001 47.0468 95.748 35.7245 86.2098 27.2079V27.2079Z" fill="white"/>
<path d="M67.2536 40.3294L58.6455 48.6114C60.2899 49.6482 61.6823 50.9836 62.718 52.5316L71.6313 43.9565C72.7532 42.877 72.6823 41.1901 71.4733 40.1884C70.2643 39.1866 68.3756 39.2499 67.2536 40.3294V40.3294Z" fill="white"/>
<path d="M50.3849 51.5996C45.7599 51.5996 41.9964 54.9597 41.9964 59.0891C41.9964 63.2191 45.7591 66.5785 50.3849 66.5785C55.0107 66.5785 58.7734 63.2191 58.7734 59.0891C58.7734 54.9597 55.0099 51.5996 50.3849 51.5996V51.5996Z" fill="white"/>
</g>
<defs>
<clipPath id="clip0">
<rect width="101" height="90" fill="white"/>
</clipPath>
</defs>
</svg>
