<svg width="128" height="130" viewBox="0 0 128 130" fill="none" xmlns="http://www.w3.org/2000/svg">
<path d="M103.211 16.4953C92.7375 5.85813 78.812 0 64 0C49.1877 0 35.2625 5.85813 24.7892 16.4953C14.3155 27.1329 8.54724 41.2758 8.54724 56.3189C8.54724 71.3624 14.3155 85.505 24.7892 96.1421L53.993 125.803C56.6577 128.509 60.2115 130 63.9995 130C67.7875 130 71.3415 128.51 74.0062 125.803L103.211 96.1421C113.684 85.505 119.452 71.3624 119.452 56.3189C119.452 41.2755 113.685 27.1327 103.211 16.4953V16.4953ZM97.908 90.756L68.7032 120.417C67.455 121.685 65.7845 122.383 63.9995 122.383C62.2145 122.383 60.5442 121.685 59.2962 120.417L30.0925 90.756C21.0352 81.5575 16.0472 69.3276 16.0472 56.3189C16.0472 43.3106 21.0352 31.0804 30.0925 21.8814C39.1492 12.6829 51.1912 7.61719 64 7.61719C76.8087 7.61719 88.8507 12.6829 97.9077 21.8814C116.604 40.8705 116.604 71.7674 97.908 90.756V90.756Z" fill="white"/>
<path d="M79.771 47.6873C79.5362 45.7813 77.9412 44.351 76.05 44.351H75.7835V40.0006C75.7835 33.4018 70.4975 28.0332 64 28.0332C57.5025 28.0332 52.2165 33.4018 52.2165 40.0006V44.351H51.95C50.0587 44.351 48.4635 45.7813 48.229 47.6873L44.2125 80.3227C44.079 81.4068 44.4105 82.4966 45.1222 83.3155C45.834 84.1346 46.858 84.6035 47.9335 84.6035H80.0667H80.0717C82.1427 84.6035 83.8217 82.8983 83.8217 80.7949C83.8217 80.5634 83.8012 80.3366 83.7625 80.1165L79.771 47.6873ZM59.7165 40.0008C59.7165 37.6022 61.638 35.6506 64 35.6506C66.362 35.6506 68.2835 37.6022 68.2835 40.0008V44.3512H59.7165V40.0008ZM52.1812 76.9866L55.2602 51.9684H55.9665H72.0335H72.7397L75.8187 76.9866H52.1812Z" fill="white"/>
</svg>
