<svg width="128" height="105" viewBox="0 0 128 105" fill="none" xmlns="http://www.w3.org/2000/svg">
<g clip-path="url(#clip0)">
<path d="M127.496 95.0856L118.709 74.1076C122.936 67.0993 125.171 59.2876 125.186 51.4274C125.211 37.8919 118.827 25.0932 107.209 15.3897C95.5884 5.68442 80.1037 0.22156 63.6075 0.00684403C54.9648 -0.106974 46.5783 1.19937 38.6683 3.88527C31.0391 6.47602 24.1973 10.2287 18.3333 15.039C12.4691 19.8493 7.89436 25.4617 4.73636 31.7201C1.46212 38.2087 -0.128628 45.0917 0.00812163 52.178C0.269371 65.7101 6.92911 78.4124 18.7603 87.9448C30.5663 97.4569 46.1283 102.692 62.5932 102.692C62.6255 102.692 62.6595 102.692 62.6917 102.692C72.2737 102.68 81.7965 100.846 90.3402 97.3792L115.913 104.587C116.897 104.865 117.905 105 118.902 105C121.27 105 123.574 104.237 125.321 102.803C127.804 100.767 128.637 97.8096 127.496 95.0856ZM119.955 98.4013C119.703 98.6078 119.164 98.9212 118.379 98.7001L91.2807 91.0618C90.8799 90.949 90.4632 90.8928 90.0477 90.8928C89.4352 90.8928 88.8255 91.0144 88.2732 91.2541C80.4415 94.6529 71.5915 96.4555 62.6797 96.4666C32.7923 96.5062 8.06936 76.5925 7.59586 52.0794C7.35761 39.7462 13.0766 28.155 23.6993 19.441C34.3221 10.7273 48.448 6.03674 63.487 6.23177C93.3694 6.6204 117.643 26.8909 117.597 51.4178C117.583 58.7284 115.385 65.9881 111.242 72.4122C110.752 73.1726 110.667 74.0657 111.008 74.8793L120.319 97.1085C120.589 97.7522 120.207 98.195 119.955 98.4013Z" fill="white"/>
<path d="M61.9774 74.3906C59.9926 74.3906 58.0911 75.8223 58.1829 77.5033C58.2749 79.1896 59.8501 80.616 61.9774 80.616C63.9621 80.616 65.8636 79.1843 65.7719 77.5033C65.6799 75.8167 64.1046 74.3906 61.9774 74.3906Z" fill="white"/>
<path d="M61.9774 26.1836C51.5676 26.1836 43.0986 33.1308 43.0986 41.67C43.0986 43.389 44.7976 44.7827 46.8931 44.7827C48.9886 44.7827 50.6876 43.389 50.6876 41.67C50.6876 36.5636 55.7524 32.4089 61.9774 32.4089C68.2023 32.4089 73.2671 36.5636 73.2671 41.67C73.2671 46.7765 68.2023 50.9311 61.9774 50.9311C59.8819 50.9311 58.1829 52.3249 58.1829 54.0438V66.7391C58.1829 68.4581 59.8819 69.8518 61.9774 69.8518C64.0729 69.8518 65.7719 68.4583 65.7719 66.7389V56.8421C74.3691 55.3973 80.8561 49.1435 80.8561 41.67C80.8561 33.1308 72.3871 26.1836 61.9774 26.1836Z" fill="white"/>
</g>
<defs>
<clipPath id="clip0">
<rect width="128" height="105" fill="white"/>
</clipPath>
</defs>
</svg>
