<svg width="128" height="94" viewBox="0 0 128 94" fill="none" xmlns="http://www.w3.org/2000/svg">
<path d="M63.9999 51.2715C57.5836 51.2715 52.3635 55.105 52.3635 59.817C52.3635 64.529 57.5836 68.3625 63.9999 68.3625C70.4162 68.3625 75.6363 64.529 75.6363 59.817C75.6363 55.105 70.4162 51.2715 63.9999 51.2715Z" fill="white"/>
<path d="M122.182 8.5455H89.212V4.27275C89.212 1.91307 86.6069 0 83.3938 0C80.1806 0 77.5755 1.91307 77.5755 4.27275V8.5455H50.4242V4.27275C50.4242 1.91307 47.8192 0 44.606 0C41.3928 0 38.7878 1.91307 38.7878 4.27275V8.5455H5.81822C2.60504 8.5455 0 10.4584 0 12.8181V25.6361H5.81822H11.6364H116.364H122.182H128V12.8181C128 10.4584 125.395 8.5455 122.182 8.5455Z" fill="white"/>
<path d="M122.182 34.1816H116.363H11.6364H5.81822H0V89.7271C0 92.0867 2.60504 93.9998 5.81822 93.9998H122.182C125.395 93.9998 128 92.0867 128 89.7271V34.1816H122.182ZM63.9999 76.9086C51.1675 76.9086 40.7273 69.2416 40.7273 59.8178C40.7273 50.394 51.1672 42.727 63.9999 42.727C76.8325 42.727 87.2725 50.394 87.2725 59.8178C87.2725 69.2416 76.8323 76.9086 63.9999 76.9086Z" fill="white"/>
</svg>
